<svg width="39" height="40" viewBox="0 0 39 40" fill="none" xmlns="http://www.w3.org/2000/svg">
<path d="M12.2379 15.8492C12.0116 15.6319 11.7123 15.5136 11.4031 15.5192C11.0939 15.5248 10.7988 15.6539 10.5801 15.8794C10.3614 16.1048 10.2362 16.409 10.2307 16.7278C10.2253 17.0465 10.34 17.355 10.5509 17.5883L18.5084 25.7914C18.6193 25.9058 18.7509 25.9965 18.8958 26.0584C19.0406 26.1202 19.1959 26.1521 19.3527 26.1521C19.5095 26.1521 19.6648 26.1202 19.8097 26.0584C19.9546 25.9965 20.0862 25.9058 20.197 25.7914L28.1546 17.5883C28.3719 17.3561 28.4921 17.0452 28.4892 16.7226C28.4863 16.4 28.3607 16.0914 28.1393 15.8634C27.9178 15.6354 27.6184 15.5061 27.3054 15.5035C26.9925 15.5008 26.691 15.625 26.466 15.8492L19.3519 23.1828L12.2379 15.8492Z" fill="#01B3FF"/>
</svg>
